<svg width="28" height="28" viewBox="0 0 28 28" fill="none" xmlns="http://www.w3.org/2000/svg">
<path d="M0 6.51163C0 2.91536 2.91536 0 6.51163 0H21.4884C25.0846 0 28 2.91536 28 6.51163V21.4884C28 25.0846 25.0846 28 21.4884 28H6.51163C2.91536 28 0 25.0846 0 21.4884V6.51163Z" fill="#FF3400"/>
<path d="M2.97992 17.6234V14.4107H3.56469V14.8511C3.6802 14.6971 3.81497 14.5719 3.96898 14.4757C4.12781 14.3794 4.3107 14.3313 4.51766 14.3313C4.8305 14.3313 5.06152 14.3794 5.21072 14.4757C5.36473 14.5671 5.4995 14.7067 5.61501 14.8944C5.75939 14.6971 5.91822 14.5551 6.09149 14.4685C6.26475 14.377 6.45246 14.3313 6.6546 14.3313C6.9145 14.3313 7.12386 14.3698 7.28269 14.4468C7.44152 14.5238 7.56184 14.6225 7.64366 14.7428C7.72548 14.8631 7.78083 14.9955 7.80971 15.1399C7.83859 15.2795 7.85302 15.4142 7.85302 15.5442V17.6234H7.26825V15.5442C7.26825 15.3035 7.2105 15.1086 7.09499 14.9594C6.97948 14.8102 6.79658 14.7356 6.54631 14.7356C6.3923 14.7356 6.25272 14.7789 6.12758 14.8655C6.00245 14.9522 5.90378 15.0581 5.83159 15.1832C5.75939 15.3083 5.7233 15.4287 5.7233 15.5442V17.6234H5.13853V15.5442C5.13853 15.4046 5.10965 15.2746 5.05189 15.1543C4.99414 15.0292 4.91232 14.9281 4.80643 14.8511C4.70055 14.7741 4.57541 14.7356 4.43102 14.7356C4.26257 14.7356 4.11337 14.7813 3.98342 14.8728C3.85347 14.9594 3.74999 15.0653 3.67298 15.1904C3.60079 15.3155 3.56469 15.4335 3.56469 15.5442V17.6234H2.97992Z" fill="white"/>
<path d="M10.2066 17.71C9.91296 17.71 9.64585 17.6498 9.4052 17.5295C9.16936 17.4044 8.97925 17.2167 8.83486 16.9664C8.69529 16.7161 8.6255 16.4009 8.6255 16.0206C8.6255 15.6356 8.69529 15.318 8.83486 15.0677C8.97925 14.8174 9.16936 14.6321 9.4052 14.5118C9.64585 14.3915 9.91296 14.3313 10.2066 14.3313C10.4953 14.3313 10.76 14.3915 11.0007 14.5118C11.2413 14.6321 11.4314 14.8174 11.571 15.0677C11.7154 15.318 11.7876 15.6356 11.7876 16.0206C11.7876 16.4009 11.7154 16.7161 11.571 16.9664C11.4314 17.2167 11.2413 17.4044 11.0007 17.5295C10.76 17.6498 10.4953 17.71 10.2066 17.71ZM10.2066 17.2913C10.4328 17.2913 10.6157 17.2287 10.7552 17.1036C10.8996 16.9736 11.0055 16.8124 11.0729 16.6199C11.1451 16.4225 11.1812 16.2228 11.1812 16.0206C11.1812 15.8185 11.1451 15.6188 11.0729 15.4214C11.0055 15.2241 10.8996 15.0605 10.7552 14.9305C10.6157 14.8006 10.4328 14.7356 10.2066 14.7356C9.97553 14.7356 9.78783 14.8006 9.64344 14.9305C9.49905 15.0605 9.39076 15.2241 9.31856 15.4214C9.25118 15.6188 9.21749 15.8185 9.21749 16.0206C9.21749 16.2228 9.25118 16.4225 9.31856 16.6199C9.39076 16.8124 9.49905 16.9736 9.64344 17.1036C9.78783 17.2287 9.97553 17.2913 10.2066 17.2913Z" fill="white"/>
<path d="M14.2061 17.71C13.9558 17.71 13.7393 17.6643 13.5564 17.5728C13.3783 17.4766 13.2339 17.3683 13.1232 17.2479V17.6234H12.5384V12.9813H13.1015V14.8511C13.1834 14.7308 13.3085 14.6153 13.4769 14.5046C13.6502 14.3891 13.8909 14.3313 14.1989 14.3313C14.4636 14.3313 14.685 14.3842 14.8631 14.4901C15.0412 14.5912 15.1807 14.7236 15.2818 14.8872C15.3877 15.0508 15.4623 15.2217 15.5056 15.3998C15.5489 15.5779 15.5706 15.7391 15.5706 15.8835C15.5706 16.2781 15.5008 16.6126 15.3612 16.887C15.2265 17.1565 15.0532 17.361 14.8414 17.5006C14.6345 17.6402 14.4227 17.71 14.2061 17.71ZM14.0328 17.2768C14.2879 17.2768 14.5021 17.1589 14.6754 16.9231C14.8534 16.6872 14.9425 16.3624 14.9425 15.9484C14.9425 15.7319 14.9136 15.5297 14.8559 15.342C14.8029 15.1495 14.7115 14.9955 14.5815 14.88C14.4516 14.7597 14.2735 14.6995 14.0473 14.6995C13.8355 14.6995 13.6598 14.7621 13.5203 14.8872C13.3807 15.0075 13.2772 15.1639 13.2098 15.3565C13.1473 15.5442 13.116 15.7415 13.116 15.9484C13.116 16.3816 13.193 16.7113 13.347 16.9375C13.501 17.1637 13.7296 17.2768 14.0328 17.2768Z" fill="white"/>
<path d="M16.3286 17.6234V14.4107H16.9134V17.6234H16.3286ZM16.307 13.5733V12.9813H16.935V13.5733H16.307Z" fill="white"/>
<path d="M17.8014 17.6234V12.9813H18.3861V17.6234H17.8014Z" fill="white"/>
<path d="M20.6169 17.71C20.3522 17.71 20.126 17.657 19.9383 17.5512C19.7506 17.4453 19.599 17.3081 19.4835 17.1397C19.3728 16.9712 19.291 16.7883 19.238 16.591C19.1851 16.3936 19.1586 16.2035 19.1586 16.0206C19.1586 15.8185 19.1827 15.6188 19.2308 15.4214C19.2838 15.2241 19.368 15.0436 19.4835 14.88C19.599 14.7115 19.753 14.5792 19.9455 14.4829C20.1381 14.3818 20.3763 14.3313 20.6603 14.3313C20.9731 14.3313 21.2234 14.3842 21.4111 14.4901C21.6036 14.5912 21.748 14.7211 21.8442 14.88C21.9405 15.034 22.0055 15.1952 22.0392 15.3637C22.0729 15.5321 22.0897 15.6789 22.0897 15.8041C22.0897 15.9099 22.0825 16.011 22.068 16.1073H19.7723C19.7723 16.3287 19.8012 16.5284 19.8589 16.7065C19.9167 16.8846 20.0081 17.0265 20.1332 17.1324C20.2584 17.2383 20.4244 17.2913 20.6314 17.2913C20.8287 17.2913 20.9851 17.2528 21.1006 17.1757C21.2162 17.0987 21.3004 17.0073 21.3533 16.9014C21.4063 16.7907 21.44 16.6896 21.4544 16.5982H22.068C22.0392 16.7715 21.9694 16.9447 21.8587 17.118C21.7528 17.2864 21.5988 17.4284 21.3966 17.5439C21.1945 17.6546 20.9346 17.71 20.6169 17.71ZM19.7723 15.6885H21.4544C21.4592 15.6645 21.4616 15.6404 21.4616 15.6164C21.4616 15.5923 21.4616 15.5682 21.4616 15.5442C21.4616 15.4046 21.4351 15.2746 21.3822 15.1543C21.3293 15.0292 21.2426 14.9281 21.1223 14.8511C21.002 14.7741 20.8383 14.7356 20.6314 14.7356C20.4244 14.7356 20.2608 14.7909 20.1405 14.9016C20.025 15.0075 19.9383 15.1351 19.8806 15.2843C19.8276 15.4287 19.7915 15.5634 19.7723 15.6885Z" fill="white"/>
<path d="M4.6476 23.1378C4.39733 23.1378 4.18075 23.0921 3.99786 23.0006C3.81978 22.9044 3.67539 22.7961 3.56469 22.6758V23.0512H2.97992V18.4091H3.54303V20.2789C3.62485 20.1586 3.74999 20.0431 3.91844 19.9324C4.09171 19.8169 4.33236 19.7591 4.64039 19.7591C4.9051 19.7591 5.12649 19.8121 5.30457 19.9179C5.48265 20.019 5.62223 20.1514 5.7233 20.315C5.82918 20.4786 5.90378 20.6495 5.9471 20.8276C5.99042 21.0057 6.01207 21.1669 6.01207 21.3113C6.01207 21.7059 5.94229 22.0405 5.80271 22.3148C5.66795 22.5843 5.49468 22.7889 5.28291 22.9284C5.07596 23.068 4.86419 23.1378 4.6476 23.1378ZM4.47434 22.7046C4.72942 22.7046 4.9436 22.5867 5.11687 22.3509C5.29495 22.115 5.38398 21.7902 5.38398 21.3763C5.38398 21.1597 5.35511 20.9575 5.29735 20.7698C5.24441 20.5773 5.15296 20.4233 5.02301 20.3078C4.89306 20.1875 4.71499 20.1273 4.48878 20.1273C4.27701 20.1273 4.10134 20.1899 3.96176 20.315C3.82219 20.4353 3.71871 20.5918 3.65133 20.7843C3.58876 20.972 3.55747 21.1693 3.55747 21.3763C3.55747 21.8094 3.63448 22.1391 3.78849 22.3653C3.94251 22.5915 4.17112 22.7046 4.47434 22.7046Z" fill="white"/>
<path d="M7.72683 23.1378C7.54394 23.1378 7.35623 23.1041 7.16371 23.0367C6.97601 22.9693 6.81718 22.8659 6.68723 22.7263C6.55728 22.5867 6.49231 22.4135 6.49231 22.2065C6.49231 21.961 6.54525 21.7613 6.65114 21.6073C6.76183 21.4533 6.90382 21.3354 7.07708 21.2535C7.25516 21.1669 7.44527 21.1091 7.64742 21.0803C7.85437 21.0466 8.0517 21.0297 8.23941 21.0297H8.67979C8.67979 20.7361 8.63647 20.5244 8.54984 20.3944C8.46321 20.2597 8.2731 20.1923 7.97951 20.1923C7.87362 20.1923 7.76533 20.2091 7.65464 20.2428C7.54394 20.2717 7.45008 20.3246 7.37308 20.4016C7.30088 20.4738 7.26479 20.5749 7.26479 20.7049H6.66558C6.66558 20.4498 6.72814 20.2548 6.85328 20.1201C6.98323 19.9853 7.14687 19.8915 7.3442 19.8385C7.54153 19.7856 7.74608 19.7591 7.95785 19.7591C8.10224 19.7591 8.25866 19.7711 8.42711 19.7952C8.60038 19.8193 8.7568 19.8698 8.89637 19.9468C9.04076 20.0238 9.14183 20.1417 9.19959 20.3006C9.22847 20.3728 9.24531 20.4883 9.25013 20.6471C9.25975 20.8059 9.26456 20.9551 9.26456 21.0947V22.1487C9.26456 22.2979 9.26938 22.464 9.279 22.6469C9.29344 22.825 9.31751 22.9597 9.3512 23.0512H8.78086C8.76161 22.9693 8.74477 22.8923 8.73033 22.8201C8.7207 22.748 8.71108 22.6709 8.70145 22.5891C8.55225 22.7768 8.40545 22.9164 8.26107 23.0079C8.11668 23.0945 7.9386 23.1378 7.72683 23.1378ZM7.72683 22.7046C7.99635 22.7046 8.1985 22.6493 8.33326 22.5386C8.46802 22.4231 8.55706 22.2715 8.60038 22.0838C8.64851 21.8961 8.67257 21.6915 8.67257 21.4701C8.63888 21.4653 8.58594 21.4605 8.51374 21.4557C8.44636 21.4509 8.39101 21.4485 8.3477 21.4485C8.24181 21.4485 8.11668 21.4581 7.97229 21.4773C7.83271 21.4966 7.69554 21.5327 7.56078 21.5856C7.42602 21.6338 7.31292 21.7035 7.22147 21.795C7.13484 21.8816 7.09152 21.9947 7.09152 22.1343C7.09152 22.3124 7.15409 22.452 7.27923 22.553C7.40436 22.6541 7.55356 22.7046 7.72683 22.7046Z" fill="white"/>
<path d="M10.0264 23.0512V19.8385H10.6111V20.25C10.7074 20.1153 10.8277 19.9998 10.9721 19.9035C11.1213 19.8072 11.3259 19.7591 11.5857 19.7591C11.8938 19.7591 12.1368 19.8097 12.3149 19.9107C12.4978 20.0118 12.6278 20.1514 12.7048 20.3294C12.7818 20.5075 12.8203 20.7121 12.8203 20.9431V23.0512H12.2499V20.9214C12.2499 20.7771 12.2138 20.6471 12.1416 20.5316C12.0695 20.4113 11.9732 20.3174 11.8529 20.25C11.7325 20.1778 11.6002 20.1417 11.4558 20.1417C11.2296 20.1417 11.0323 20.2212 10.8638 20.38C10.6954 20.534 10.6111 20.7313 10.6111 20.972V23.0512H10.0264Z" fill="white"/>
<path d="M13.5676 23.0512V18.4091H14.1524V21.1813L15.3797 19.8385H16.1016L14.8166 21.2319L16.2027 23.0512H15.4302L14.1524 21.3402V23.0512H13.5676Z" fill="white"/>
<path d="M16.6252 23.0512V19.8385H17.21V23.0512H16.6252ZM16.6035 19.0011V18.4091H17.2316V19.0011H16.6035Z" fill="white"/>
<path d="M17.9501 23.0512V19.8385H18.5349V20.25C18.6311 20.1153 18.7514 19.9998 18.8958 19.9035C19.045 19.8072 19.2496 19.7591 19.5095 19.7591C19.8175 19.7591 20.0606 19.8097 20.2387 19.9107C20.4215 20.0118 20.5515 20.1514 20.6285 20.3294C20.7055 20.5075 20.744 20.7121 20.744 20.9431V23.0512H20.1737V20.9214C20.1737 20.7771 20.1376 20.6471 20.0654 20.5316C19.9932 20.4113 19.8969 20.3174 19.7766 20.25C19.6563 20.1778 19.5239 20.1417 19.3795 20.1417C19.1533 20.1417 18.956 20.2212 18.7875 20.38C18.6191 20.534 18.5349 20.7313 18.5349 20.972V23.0512H17.9501Z" fill="white"/>
<path d="M22.827 24.329C22.5622 24.329 22.3457 24.2905 22.1772 24.2135C22.0088 24.1413 21.8764 24.0474 21.7801 23.9319C21.6887 23.8212 21.6237 23.7081 21.5852 23.5926C21.5515 23.4819 21.5347 23.3881 21.5347 23.3111H22.1339C22.1339 23.4555 22.1724 23.5734 22.2494 23.6648C22.3312 23.7563 22.4323 23.8236 22.5526 23.867C22.6778 23.9103 22.8053 23.9319 22.9352 23.9319C23.2336 23.9319 23.4526 23.8236 23.5922 23.6071C23.7366 23.3953 23.8088 23.0127 23.8088 22.4592C23.7222 22.6132 23.5802 22.7359 23.3828 22.8274C23.1855 22.9188 22.9882 22.9645 22.7909 22.9645C22.3577 22.9645 22.0136 22.8322 21.7585 22.5675C21.5034 22.3028 21.3759 21.8937 21.3759 21.3402C21.3759 21.037 21.4312 20.7674 21.5419 20.5316C21.6574 20.2909 21.8162 20.1032 22.0184 19.9685C22.2253 19.8289 22.4612 19.7591 22.7259 19.7591C23.0098 19.7591 23.2385 19.7928 23.4117 19.8602C23.585 19.9228 23.7173 20.0335 23.8088 20.1923V19.8385H24.3936V22.8707C24.3936 23.145 24.3334 23.3929 24.2131 23.6143C24.0976 23.8357 23.9219 24.0089 23.6861 24.1341C23.455 24.264 23.1687 24.329 22.827 24.329ZM22.8703 22.553C23.0965 22.553 23.277 22.4953 23.4117 22.3798C23.5513 22.2643 23.65 22.1151 23.7077 21.9322C23.7703 21.7493 23.8016 21.5567 23.8016 21.3546C23.8016 21.0129 23.727 20.7289 23.5778 20.5027C23.4286 20.2765 23.1807 20.1634 22.8342 20.1634C22.6128 20.1634 22.4371 20.2163 22.3072 20.3222C22.182 20.4281 22.093 20.5701 22.04 20.7482C21.9919 20.9263 21.9678 21.1236 21.9678 21.3402C21.9678 21.7059 22.0424 21.9995 22.1916 22.2209C22.3457 22.4423 22.5719 22.553 22.8703 22.553Z" fill="white"/>
<path d="M3.00125 11.9814V4.15096H6.21624C6.63029 4.15096 7.01592 4.22402 7.37315 4.37016C7.73037 4.50818 8.01858 4.71926 8.23778 5.00341C8.45698 5.27945 8.56659 5.63261 8.56659 6.0629C8.56659 6.40388 8.49352 6.69209 8.34738 6.92753C8.20937 7.15486 8.02264 7.3497 7.7872 7.51208C7.55176 7.66633 7.29602 7.80435 7.01998 7.92613C7.40156 8.03979 7.73443 8.17781 8.01858 8.34018C8.31085 8.49443 8.53817 8.70146 8.70054 8.96125C8.87104 9.22105 8.95628 9.55392 8.95628 9.95985C8.95628 10.2846 8.87104 10.5728 8.70054 10.8245C8.53817 11.0762 8.32303 11.2913 8.05511 11.4699C7.7872 11.6404 7.49898 11.7703 7.19048 11.8596C6.89009 11.9408 6.60187 11.9814 6.32584 11.9814H3.00125ZM4.60875 10.7392H5.75348C6.17564 10.7392 6.53692 10.6581 6.83731 10.4957C7.1377 10.3252 7.2879 10.041 7.2879 9.64322C7.2879 9.36719 7.21077 9.15204 7.05652 8.99779C6.90226 8.83541 6.70742 8.72175 6.47198 8.6568C6.23654 8.58374 5.99703 8.5472 5.75348 8.5472H4.60875V10.7392ZM4.60875 7.32941H5.64387C5.86308 7.32941 6.0701 7.29287 6.26495 7.2198C6.46792 7.14674 6.63435 7.04119 6.76425 6.90318C6.89415 6.75704 6.95909 6.58249 6.95909 6.37952C6.95909 6.1522 6.89821 5.96953 6.77643 5.83152C6.65465 5.68538 6.50039 5.57578 6.31366 5.50271C6.13505 5.42964 5.94832 5.39311 5.75348 5.39311H4.60875V7.32941Z" fill="white"/>
<path d="M10.308 11.9814V4.15096H12.5731L15.5811 10.4104V4.15096H17.1155V11.9814H14.8382L11.8181 5.72191V11.9814H10.308Z" fill="white"/>
<path d="M18.6378 11.9814V4.15096H20.2453V11.9814H18.6378Z" fill="white"/>
</svg>
