<svg width="28" height="28" viewBox="0 0 28 28" fill="none" xmlns="http://www.w3.org/2000/svg">
<g clip-path="url(#clip0_799_3815)">
<path d="M23.0104 0H4.9896C2.23392 0 0 2.23392 0 4.9896V23.0104C0 25.7661 2.23392 28 4.9896 28H23.0104C25.7661 28 28 25.7661 28 23.0104V4.9896C28 2.23392 25.7661 0 23.0104 0Z" fill="#C1C1C3"/>
<path d="M5.76799 1.20947H22.232C24.7475 1.20947 26.7904 3.25235 26.7904 5.76787V22.2319C26.7904 24.7474 24.7475 26.7903 22.232 26.7903H5.76799C3.25247 26.7903 1.20959 24.7474 1.20959 22.2319V5.76787C1.20959 3.25235 3.25247 1.20947 5.76799 1.20947Z" fill="#103B99"/>
<path d="M19.6785 8.60477L16.5884 14.6259H19.6034L20.2116 13.1766H22.0641L22.0741 14.6259H24.7733L24.4093 6.17773H20.3381L18.9751 8.60589H19.6785V8.60477ZM21.9745 8.94749L21.998 11.2457H20.9855L21.9733 8.94749H21.9745Z" fill="white"/>
<path d="M7.34724 14.6262C9.16052 14.6262 10.5012 13.3326 10.5012 11.9483C10.5012 11.376 10.4239 10.5651 9.52116 10.2358C10.397 9.79454 11.1956 8.94222 11.1956 7.97902C11.1956 6.93406 10.3847 6.21054 9.04516 6.2027C7.95652 6.19486 5.48356 6.2027 5.48356 6.2027L4.17652 8.72942L4.81156 8.73278L3.28052 14.6262H7.34612H7.34724ZM7.35956 8.41918L8.13348 8.42254C8.353 8.42254 8.8122 8.43822 8.6778 9.01726C8.55572 9.5515 8.06628 9.62094 7.78964 9.62094H7.07172L7.35844 8.41918H7.35956ZM6.69092 11.1061H7.6474C8.01028 11.1061 8.3026 11.4085 8.18276 11.8609C8.06068 12.3112 7.6194 12.4915 7.25428 12.4915H6.32804L6.6898 11.1072L6.69092 11.1061Z" fill="white"/>
<path d="M14.7112 14.9262C15.2275 14.9105 15.8144 14.8052 16.0843 14.719L17.4328 11.957C17.0419 12.2572 16.2243 12.6817 15.4112 12.6638C13.9978 12.6324 13.468 11.7476 13.4747 10.9703C13.4859 9.87048 14.3875 8.73144 15.8816 8.70456C16.6409 8.69112 17.295 9.0372 17.7833 9.43032L19.1072 7.06824L17.304 6.1084L17.0643 6.42312C16.8672 6.31112 16.5211 6.26072 16.3061 6.26072C12.8027 6.26072 10.7576 9.1268 10.7565 11.4833C10.7565 13.2663 11.844 15.0102 14.7089 14.9262H14.7112Z" fill="white"/>
<path d="M8.19504 18.1217C7.68656 18.1217 7.224 18.3681 6.80848 18.8587C6.77712 18.628 6.68976 18.4476 6.54752 18.3166C6.40416 18.1867 6.21824 18.1206 5.98976 18.1206C5.49248 18.1206 5.05568 18.3468 4.676 18.7982L4.78464 18.2035H4.20448C4.15296 18.4667 4.07344 18.8004 3.9648 19.2048L3.25696 21.8457H3.9088L4.4912 19.6707C4.56064 19.4097 4.70736 19.1812 4.93136 18.9864C5.15424 18.7904 5.37712 18.6929 5.59888 18.6929C5.82064 18.6929 5.98416 18.7825 6.06816 18.9617C6.15104 19.1409 6.15216 19.3851 6.06816 19.6931L5.49136 21.8457H6.1432L6.7424 19.6113C6.81408 19.3425 6.95632 19.123 7.168 18.9505C7.37968 18.7792 7.59248 18.6929 7.80528 18.6929C8.05168 18.6929 8.2152 18.7892 8.29584 18.983C8.37648 19.1756 8.36864 19.4534 8.27232 19.814L7.728 21.8457H8.37984L8.94656 19.7312C9.08768 19.2048 9.08432 18.8049 8.93536 18.5305C8.7864 18.2572 8.54 18.1206 8.19616 18.1206L8.19504 18.1217Z" fill="white"/>
<path d="M11.9134 18.1216C11.3948 18.1216 10.9188 18.2963 10.4854 18.6469C10.0508 18.9963 9.75517 19.4667 9.59725 20.0558C9.44829 20.6102 9.49309 21.0616 9.72941 21.4088C9.96573 21.756 10.3376 21.9296 10.8438 21.9296C11.1686 21.9296 11.4923 21.8501 11.8137 21.6921C12.1352 21.5342 12.4129 21.308 12.647 21.0145C12.8811 20.7211 13.0502 20.3784 13.1555 19.9875C13.3022 19.4387 13.2619 18.9896 13.0323 18.6424C12.8027 18.2952 12.4308 18.1216 11.9145 18.1216H11.9134ZM12.4532 20.0099C12.3435 20.4209 12.1486 20.7569 11.8697 21.0179C11.5908 21.2789 11.2952 21.4088 10.9827 21.4088C10.6702 21.4088 10.4574 21.2789 10.3241 21.019C10.1908 20.7592 10.1774 20.4299 10.2838 20.0312C10.3902 19.6325 10.5772 19.3009 10.8427 19.0366C11.1081 18.7723 11.4094 18.6401 11.7465 18.6401C12.0836 18.6401 12.3043 18.7734 12.4252 19.0411C12.5462 19.3088 12.5552 19.6313 12.4544 20.0099H12.4532Z" fill="white"/>
<path d="M16.3262 18.1217C15.7628 18.1217 15.2936 18.348 14.9195 18.7993L15.5388 16.4888H14.8579L13.6785 20.8904C13.5699 21.2969 13.4747 21.615 13.394 21.8457H13.9742L14.1646 21.2443C14.3169 21.7012 14.6641 21.9286 15.2062 21.9286C15.6576 21.9286 16.0876 21.7516 16.4964 21.3966C16.9052 21.0416 17.1897 20.5667 17.3488 19.972C17.4944 19.4277 17.472 18.983 17.2793 18.638C17.0878 18.2931 16.7697 18.1206 16.3251 18.1206L16.3262 18.1217ZM16.6678 20.0033C16.5558 20.4222 16.3688 20.7548 16.1078 21.0024C15.8468 21.2499 15.55 21.3731 15.2185 21.3731C14.934 21.3731 14.7235 21.2712 14.5857 21.0684C14.448 20.8657 14.4155 20.6283 14.4883 20.3572L14.6473 19.7625C14.7246 19.4736 14.8904 19.2204 15.1457 19.0009C15.4 18.7814 15.671 18.6717 15.9577 18.6717C16.2825 18.6717 16.5076 18.796 16.6342 19.0457C16.7608 19.2955 16.772 19.6147 16.6678 20.0033Z" fill="white"/>
<path d="M17.6132 21.8468H18.2796L19.2551 18.2046H18.5898L17.6132 21.8468Z" fill="white"/>
<path d="M18.9952 16.7877C18.8921 16.8717 18.8249 16.9747 18.7925 17.0979C18.7589 17.2234 18.7701 17.3287 18.8261 17.4138C18.8821 17.4989 18.9717 17.5415 19.096 17.5415C19.2203 17.5415 19.3401 17.4989 19.4421 17.4138C19.544 17.3287 19.6112 17.2234 19.6448 17.0979C19.6773 16.9747 19.6649 16.8717 19.6078 16.7877C19.5507 16.7037 19.4611 16.6611 19.339 16.6611C19.2169 16.6611 19.0982 16.7037 18.9952 16.7877Z" fill="white"/>
<path d="M20.739 16.4888L19.3043 21.8468H19.9707L21.4054 16.4888H20.739Z" fill="white"/>
<path d="M23.4259 18.1216C22.9073 18.1216 22.4448 18.3097 22.0371 18.6861C21.6294 19.0624 21.3505 19.5283 21.2016 20.0861C21.0526 20.6427 21.0929 21.0896 21.3225 21.4256C21.5521 21.7616 21.9374 21.9296 22.4772 21.9296C22.9432 21.9296 23.3676 21.8489 23.7529 21.6888L23.7697 21.1993C23.4472 21.3248 23.0932 21.3875 22.7091 21.3875C22.3552 21.3875 22.0964 21.2833 21.9296 21.0728C21.7638 20.8633 21.7291 20.5621 21.8243 20.1678H24.3387C24.3723 20.095 24.4081 19.9897 24.4451 19.852C24.575 19.3681 24.5571 18.9582 24.3913 18.6233C24.2256 18.2885 23.9041 18.1216 23.4259 18.1216ZM23.8504 19.6638H21.9665C22.0908 19.3502 22.2678 19.0971 22.4952 18.9056C22.7236 18.7141 22.9723 18.6177 23.2422 18.6177C23.5267 18.6177 23.7193 18.7141 23.8224 18.9056C23.9254 19.0971 23.9344 19.3502 23.8504 19.6638Z" fill="white"/>
<path opacity="0.16" d="M23.0104 0H4.9896C2.23328 0 0 2.23328 0 4.9896V11.8115C3.85056 13.1902 8.50192 13.9978 13.5128 13.9978C18.9538 13.9978 23.9714 13.0458 28 11.443V4.9896C28 2.2344 25.7667 0 23.0104 0Z" fill="white"/>
</g>
<defs>
<clipPath id="clip0_799_3815">
<rect width="28" height="28" fill="white"/>
</clipPath>
</defs>
</svg>
